<svg viewBox="0,0,99.0016,99.48484" height="99.48484" width="99.0016" xmlns:xlink="http://www.w3.org/1999/xlink" xmlns="http://www.w3.org/2000/svg" version="1.1"><g transform="translate(-190.4992,-130.25758)"><g style="mix-blend-mode: normal" stroke-dashoffset="0" stroke-dasharray="" stroke-miterlimit="10" stroke-linejoin="miter" stroke-linecap="butt" fill-rule="nonzero" data-paper-data="{&quot;isPaintingLayer&quot;:true}"><path stroke-width="1" stroke="none" fill="#d99e82" d="M270.07326,212.46299c-0.61125,0 -1.22249,-0.23359 -1.68968,-0.69884l-59.64671,-59.64866c-0.93244,-0.93244 -0.93244,-2.44691 0,-3.37935c0.93244,-0.93244 2.44691,-0.93244 3.37935,0l59.64671,59.64671c0.93244,0.93244 0.93244,2.44691 0,3.37935c-0.46719,0.46525 -1.07844,0.70078 -1.68968,0.70078z"></path><path stroke-width="1" stroke="none" fill="#fcb1e3" d="M233.82505,160.68066c0,7.25899 -5.88466,13.14365 -13.14365,13.14365c-7.25899,0 -13.14365,-5.88466 -13.14365,-13.14365c0,-7.25899 5.88466,-13.14365 13.14365,-13.14365c7.25899,0 13.14365,5.88466 13.14365,13.14365z"></path><path stroke-width="1" stroke="none" fill="#ffd983" d="M232.00315,187.81525c-7.06475,-1.66821 -11.43951,-8.74768 -9.77129,-15.81243c1.66821,-7.06475 8.74768,-11.43951 15.81243,-9.77129c7.06475,1.66821 11.43951,8.74768 9.77129,15.81243c-1.66821,7.06475 -8.74768,11.43951 -15.81243,9.77129z"></path><path stroke-width="1" stroke="none" fill="#a6d388" d="M262.50476,189.35843c0,7.25899 -5.88661,13.14559 -13.14559,13.14559c-7.25899,0 -13.14365,-5.88661 -13.14365,-13.14559c0,-7.25899 5.88466,-13.14365 13.14365,-13.14365c7.25899,0 13.14559,5.88661 13.14559,13.14365z"></path><path stroke-width="1" stroke="none" fill="#d99e82" d="M270.07326,212.46299c-0.61125,0 -1.22249,-0.23359 -1.68968,-0.69884l-14.63866,-14.63866c-0.93439,-0.93244 -0.93439,-2.44691 0,-3.37935c0.93439,-0.93244 2.44496,-0.93244 3.37935,0l14.63866,14.63866c0.93244,0.93244 0.93244,2.44691 0,3.37935c-0.46719,0.4633 -1.07844,0.69884 -1.68968,0.69884z"></path><path stroke-width="0" stroke="#ff0000" fill="none" d="M190.4992,229.74242v-99.48484h99.0016v99.48484z"></path></g></g></svg>